<svg xmlns="http://www.w3.org/2000/svg" viewBox="0 0 64 64">
  <defs>
    <linearGradient id="g" x1="0" x2="1" y1="0" y2="1">
      <stop offset="0%" stop-color="#0ea5e9"/>
      <stop offset="100%" stop-color="#6366f1"/>
    </linearGradient>
  </defs>
  <rect width="64" height="64" rx="12" fill="#ffffff"/>
  <g transform="translate(8,6)">
    <path d="M16 2 v10 a8 8 0 0 1-16 0 V2 h4 v10 a4 4 0 0 0 8 0 V2h4z" fill="url(#g)"/>
    <path d="M26 22 a10 10 0 0 0 20 0 v-3 h-4 v3 a6 6 0 0 1-12 0 v-6 a6 6 0 0 0-12 0 v10 a12 12 0 0 1-12 12h-2 v4h2a16 16 0 0 0 16-16v-10a2 2 0 0 1 4 0v6z" fill="#111827" opacity=".9"/>
    <circle cx="46" cy="14" r="6" fill="url(#g)"/>
    <circle cx="46" cy="14" r="3" fill="#ffffff"/>
  </g>
</svg>

